<svg xmlns="http://www.w3.org/2000/svg" viewBox="0 0 33.59 30.97"><defs><style>.e0558f14-c308-41d8-b864-63d8fd0cd725{fill:#fff;}.aed162c6-aae5-4dd9-abb6-798540817e61{fill:none;stroke:#b9b9b9;stroke-width:0.9px;}</style></defs><title>chat</title><g id="fa85f1cc-9e0d-4cc3-a778-60916dd23329" data-name="gul-chat"><path class="e0558f14-c308-41d8-b864-63d8fd0cd725" d="M357.44,414.86a10,10,0,0,1-1.28,5.07q.61,2.79,1.21,5.6l-5.69-1.15a10,10,0,0,1-5,1.27c-4.82-.14-10.79-4.24-10.79-10.79a10.79,10.79,0,0,1,10.79-10.79C353.2,404.07,357.29,410,357.44,414.86Z" transform="translate(-324.36 -395.14)"/><path class="e0558f14-c308-41d8-b864-63d8fd0cd725" d="M335.48,417.36a10,10,0,0,1-5-1.39l-5.63,1.09c.43-1.89.85-3.78,1.28-5.67a9.82,9.82,0,0,1-1.17-5.05c.25-4.82,4.48-10.7,11-10.56a10.79,10.79,0,0,1,10.55,11C346.36,413.35,340.3,417.31,335.48,417.36Z" transform="translate(-324.36 -395.14)"/></g><g id="ab60b4f2-39cb-4ef5-9889-df1e9b74f430" data-name="grå-chat"><path class="aed162c6-aae5-4dd9-abb6-798540817e61" d="M336.27,417.13l-.65,0a9.92,9.92,0,0,1-5.07-1.27l-5.6,1.21,1.14-5.68a11.36,11.36,0,0,1-1.28-5,10.88,10.88,0,0,1,2.78-7.46,11.26,11.26,0,0,1,8-3.35c4.55.13,8.76,3.44,10.52,8.34" transform="translate(-324.36 -395.14)"/><path class="aed162c6-aae5-4dd9-abb6-798540817e61" d="M357.44,414.86a10,10,0,0,1-1.28,5.07q.61,2.79,1.21,5.6l-5.69-1.15a10,10,0,0,1-5,1.27c-4.82-.14-10.79-4.24-10.79-10.79a10.79,10.79,0,0,1,10.79-10.79C353.2,404.07,357.29,410,357.44,414.86Z" transform="translate(-324.36 -395.14)"/></g></svg>