<svg xmlns="http://www.w3.org/2000/svg" viewBox="0 0 32.87 31.69"><defs><style>.acdebe83-b4f5-44af-8597-893c4776f17c{fill:#fff;}.ae5c59a9-1e30-4006-89c4-12fc37ab46f8,.af8be0de-8d55-4313-a42e-8e0d3c89f5bc,.b9f7b1f9-b993-4645-8a5c-edc1618ac0a5,.e0010bd6-9d3b-4199-989c-6b082396f886{fill:none;}.ae5c59a9-1e30-4006-89c4-12fc37ab46f8,.af8be0de-8d55-4313-a42e-8e0d3c89f5bc{stroke:#fff;}.af8be0de-8d55-4313-a42e-8e0d3c89f5bc,.e0010bd6-9d3b-4199-989c-6b082396f886{stroke-miterlimit:10;}.af8be0de-8d55-4313-a42e-8e0d3c89f5bc,.b9f7b1f9-b993-4645-8a5c-edc1618ac0a5,.e0010bd6-9d3b-4199-989c-6b082396f886{stroke-width:0.9px;}.ae5c59a9-1e30-4006-89c4-12fc37ab46f8{stroke-width:0.5px;}.b9f7b1f9-b993-4645-8a5c-edc1618ac0a5,.e0010bd6-9d3b-4199-989c-6b082396f886{stroke:#b9b9b9;}</style></defs><title>Ikke-angivet-2</title><g id="b5794d10-6e6c-4066-84ca-0a575680d000" data-name="orange-find-homies"><circle class="acdebe83-b4f5-44af-8597-893c4776f17c" cx="13.66" cy="7.76" r="7.26"/><path class="acdebe83-b4f5-44af-8597-893c4776f17c" d="M306.28,423.79a5.54,5.54,0,0,0-2.2-2.17l0,0a3.52,3.52,0,0,0-3.74.44,8.7,8.7,0,0,1-11-.07,3.2,3.2,0,0,0-2.67-.65,3.87,3.87,0,0,0-2.22,1.5c-1.41,1.64-1.76,3.41-2.19,5.73-.36,1.95-.59,4.4.33,6,.1.17.19.32.29.46a4.11,4.11,0,0,0,3.37,1.66h16.95l.58-.12s.36-.09.71-.21a10.67,10.67,0,0,0,2.23-1.19" transform="translate(-281.32 -405.39)"/><circle class="acdebe83-b4f5-44af-8597-893c4776f17c" cx="26.32" cy="23.88" r="6.01"/><g id="b50336c8-3631-40fa-92f9-231fa173112a" data-name="kryds"><path id="a9c8cea5-2306-4858-99f9-a7f6c9cef041" data-name="Path 23" class="af8be0de-8d55-4313-a42e-8e0d3c89f5bc" d="M307.69,425.58V433" transform="translate(-281.32 -405.39)"/><path id="bf364efb-a38f-486b-bdd8-a5186bd21c33" data-name="Path 22" class="af8be0de-8d55-4313-a42e-8e0d3c89f5bc" d="M304.34,429.31h6.9" transform="translate(-281.32 -405.39)"/></g><ellipse id="ac3d1f7a-371e-45fc-b60c-7537c23326d3" data-name="hvid cirkel" class="ae5c59a9-1e30-4006-89c4-12fc37ab46f8" cx="26.42" cy="23.85" rx="6.2" ry="6.34"/></g><g id="b15480d2-430c-474b-b056-47f8a80271a4" data-name="grå-find-homies"><path id="beb07aa4-1deb-4b26-8bd8-1bb46cb5f22e" data-name="Path 23" class="e0010bd6-9d3b-4199-989c-6b082396f886" d="M307.72,425.6V433" transform="translate(-281.32 -405.39)"/><path id="aefc8af0-d93c-4c2a-8930-659cc08f41c9" data-name="Path 22" class="e0010bd6-9d3b-4199-989c-6b082396f886" d="M304.37,429.33h6.9" transform="translate(-281.32 -405.39)"/><circle class="e0010bd6-9d3b-4199-989c-6b082396f886" cx="26.31" cy="23.87" r="6.01"/><path class="b9f7b1f9-b993-4645-8a5c-edc1618ac0a5" d="M307.68,433.72" transform="translate(-281.32 -405.39)"/><path class="b9f7b1f9-b993-4645-8a5c-edc1618ac0a5" d="M306.17,423.75a5.41,5.41,0,0,0-2.19-2.18l0,0a3.5,3.5,0,0,0-3.74.45,8.72,8.72,0,0,1-11-.08,3.2,3.2,0,0,0-2.67-.65,3.9,3.9,0,0,0-2.22,1.5c-1.41,1.64-1.76,3.41-2.19,5.73-.37,2-.59,4.4.33,6,.1.16.19.31.29.45a4.1,4.1,0,0,0,3.37,1.66H303c.16,0,.36-.06.58-.12a6.18,6.18,0,0,0,.71-.21,10.67,10.67,0,0,0,2.23-1.19" transform="translate(-281.32 -405.39)"/><circle class="b9f7b1f9-b993-4645-8a5c-edc1618ac0a5" cx="13.69" cy="7.71" r="7.26"/></g></svg>